<svg width="99" height="114" viewBox="0 0 99 114" fill="none" xmlns="http://www.w3.org/2000/svg">
<g clip-path="url(#clip0_67_1672)">
<g opacity="0.2">
<path opacity="0.2" fill-rule="evenodd" clip-rule="evenodd" d="M56.4864 82.1748C77.0107 82.1748 93.6486 65.3856 93.6486 44.6748C93.6486 23.9641 77.0107 7.1748 56.4864 7.1748C35.9622 7.1748 19.3243 23.9641 19.3243 44.6748C19.3243 65.3856 35.9622 82.1748 56.4864 82.1748Z" fill="#B0BEC5"/>
<path opacity="0.2" fill-rule="evenodd" clip-rule="evenodd" d="M73.3046 114C76.6081 114 79.2862 111.298 79.2862 107.964C79.2862 104.631 76.6081 101.928 73.3046 101.928C70.001 101.928 67.3229 104.631 67.3229 107.964C67.3229 111.298 70.001 114 73.3046 114Z" fill="#2B44FF"/>
<path opacity="0.2" fill-rule="evenodd" clip-rule="evenodd" d="M47.3356 0L54.4845 7.21371L47.3356 14.4274L40.1868 7.21371L47.3356 0Z" fill="#2B44FF"/>
<path opacity="0.2" fill-rule="evenodd" clip-rule="evenodd" d="M27.4942 99.481L30.9956 103.014L27.4942 106.547L23.9928 103.014L27.4942 99.481Z" fill="#FF9B21"/>
<path opacity="0.2" fill-rule="evenodd" clip-rule="evenodd" d="M78.119 7.1748L79.8698 8.94141L78.119 10.7081L76.3682 8.94141L78.119 7.1748Z" fill="#2026A2"/>
</g>
<g filter="url(#filter0_d_67_1672)">
<path d="M39.4739 15.628L23.6317 16.1862C17.6505 16.397 12.9711 21.4607 13.18 27.4962L15.1159 83.4364C15.3248 89.472 20.3428 94.1939 26.324 93.9831L42.1662 93.4249C48.1474 93.2141 52.8268 88.1505 52.6179 82.1149L50.682 26.1747C50.4731 20.1392 45.4551 15.4172 39.4739 15.628Z" fill="#F2F2F2"/>
</g>
<path fill-rule="evenodd" clip-rule="evenodd" d="M21.7224 17.9144C17.735 18.0548 14.6154 21.4306 14.7546 25.4543L16.8243 85.2603C16.9635 89.2839 20.3089 92.4321 24.2963 92.2914L43.9631 91.5984C47.9504 91.458 51.07 88.0821 50.9308 84.0585L48.8611 24.2525C48.7219 20.2288 45.3767 17.0808 41.3891 17.2213L21.7224 17.9144ZM22.4213 17.8897C22.4727 19.3736 23.7064 20.5346 25.1769 20.4827L38.2238 20.023C39.6942 19.9712 40.8447 18.7262 40.7933 17.2423L22.4213 17.8897Z" fill="#B0BEC5"/>
<path d="M40.7297 57.6001C47.2974 57.6001 52.6215 52.2275 52.6215 45.6001C52.6215 38.9727 47.2974 33.6001 40.7297 33.6001C34.1619 33.6001 28.8378 38.9727 28.8378 45.6001C28.8378 52.2275 34.1619 57.6001 40.7297 57.6001Z" fill="#CDEBFA"/>
<path fill-rule="evenodd" clip-rule="evenodd" d="M79.8882 47.0647C78.7609 47.146 77.7851 46.9636 77.4397 46.6555C76.5731 45.8833 78.3408 42.1531 79.846 41.0983C81.3509 40.0432 85.6388 41.4508 84.3863 44.4301C83.9517 45.4642 83.0862 46.1416 82.1052 46.5532L80.5922 52.2955L77.3951 50.6518L79.8882 47.0647Z" fill="#B28B67"/>
<path fill-rule="evenodd" clip-rule="evenodd" d="M79.4459 38.3575C79.6308 38.1568 79.9103 38.0473 80.1802 38.1112C80.2459 38.1265 80.3089 38.1517 80.3675 38.1847C80.3886 38.1967 80.3916 38.206 80.4091 38.1961C80.4222 38.1886 80.4362 38.1613 80.446 38.1496C80.4763 38.1136 80.5087 38.0791 80.5435 38.0473C80.6615 37.9381 80.8063 37.8625 80.9585 37.8142C81.2439 37.7242 81.5665 37.7266 81.8454 37.8406C81.9979 37.9027 82.1311 38.0014 82.2449 38.1205C82.3041 38.182 82.3576 38.2486 82.4082 38.3176C82.4233 38.3383 82.4637 38.4226 82.4857 38.4301C82.5101 38.4379 82.5842 38.4046 82.6094 38.3998C82.9249 38.341 83.2394 38.416 83.5206 38.5633C83.8382 38.7295 84.1369 38.9032 84.3037 39.2359C84.3388 39.3061 84.3694 39.3793 84.3965 39.4534C84.4104 39.4924 84.4235 39.5317 84.4345 39.5719C84.4411 39.5959 84.4473 39.6202 84.4527 39.6445C84.4616 39.6862 84.453 39.6937 84.4967 39.6904C84.664 39.6778 84.8308 39.7174 84.9706 39.8125C85.0538 39.8692 85.1263 39.9403 85.1906 40.018C85.2123 40.0441 85.2527 40.1254 85.2821 40.141C85.3113 40.1569 85.3975 40.1449 85.4334 40.1494C85.6285 40.1725 85.8128 40.2484 85.971 40.3651C86.1339 40.4857 86.2724 40.6471 86.3732 40.8235C86.4217 40.9084 86.4582 40.9936 86.4734 41.0905C86.4799 41.1325 86.4832 41.1748 86.4939 41.2159C86.5001 41.2399 86.5204 41.272 86.5174 41.2969C86.5192 41.2819 86.7573 41.3068 86.7787 41.3116C86.8923 41.3365 86.9913 41.3944 87.073 41.4775C87.2264 41.6335 87.3156 41.8522 87.3748 42.0598C87.4054 42.1666 87.4236 42.2767 87.4301 42.3874C87.4334 42.4405 87.434 42.4936 87.4325 42.5467C87.4316 42.5722 87.4247 42.6016 87.428 42.6268C87.4325 42.6592 87.4432 42.6655 87.4676 42.6913C87.5915 42.8221 87.6834 42.9832 87.7265 43.159C87.7702 43.3369 87.7622 43.5241 87.7102 43.699C87.7072 43.7095 87.6885 43.7491 87.6914 43.7569C87.6953 43.7677 87.7271 43.7803 87.7381 43.7875C87.7753 43.8127 87.8112 43.84 87.8454 43.8694C87.9088 43.9234 87.9658 43.9846 88.0152 44.0515C88.2078 44.3125 88.2703 44.6485 88.2236 44.9662C88.1742 45.2995 88.008 45.625 87.7539 45.8461C87.7125 45.8818 87.6688 45.9145 87.6225 45.943C87.5939 45.9601 87.5889 45.9577 87.5856 45.9895C87.5817 46.0252 87.588 46.0648 87.5868 46.1005C87.5829 46.2178 87.563 46.3342 87.5306 46.4467C87.4774 46.6312 87.4039 46.8163 87.2868 46.9696C87.2327 47.041 87.1682 47.1049 87.0942 47.155C87.0564 47.1805 87.016 47.2027 86.974 47.2204C86.9523 47.2297 86.93 47.2381 86.9075 47.245C86.8947 47.2492 86.8795 47.2507 86.8673 47.2567C86.8379 47.2705 86.8435 47.2495 86.8358 47.2885C86.8245 47.3425 86.8301 47.4046 86.8245 47.4601C86.8189 47.5174 86.8111 47.5741 86.8016 47.6308C86.7826 47.7457 86.7579 47.8597 86.7225 47.9707C86.6545 48.1834 86.5433 48.3901 86.3598 48.5233C86.2813 48.5803 86.1907 48.619 86.0955 48.6364C86.0489 48.6448 86.0013 48.6484 85.954 48.6469C85.9296 48.6463 85.9026 48.6376 85.8839 48.652C85.8639 48.6676 85.8577 48.7159 85.8494 48.7405C85.7765 48.955 85.6847 49.1725 85.5268 49.3381C85.3814 49.4908 85.1813 49.5889 84.9729 49.6147C84.5686 49.6645 84.1687 49.4446 83.9351 49.1179C83.8744 49.0327 83.8239 48.94 83.7867 48.8422C83.4915 48.9901 83.1347 48.7972 82.913 48.5977C82.6365 48.3493 82.4935 47.9938 82.4947 47.6239C82.1679 47.7679 81.7853 47.47 81.7811 47.1292C81.78 47.0458 81.7963 46.963 81.8234 46.8844C81.8376 46.8433 81.8605 46.8061 81.876 46.7656C81.8956 46.7143 81.8873 46.6504 81.8923 46.5937C81.9027 46.4833 81.928 46.3768 81.9771 46.2775C82.0026 46.2253 82.0347 46.1782 82.0654 46.1296C82.0933 46.0855 82.1022 46.036 82.118 45.9868C82.1929 46.0426 82.3038 46.0714 82.393 46.0873C82.4807 46.1026 82.5827 46.0771 82.6644 46.048C82.8547 45.9805 83.0173 45.8476 83.1556 45.703C83.4591 45.3856 83.6401 44.911 83.3696 44.5123C83.2436 44.3263 82.7209 44.0581 82.489 43.9987C82.2452 43.9363 81.752 44.2954 81.7166 44.3347C81.6949 44.3593 81.681 44.3962 81.6456 44.4019C81.5683 44.4142 81.5112 44.2942 81.4874 44.2372C81.4461 44.1388 81.436 44.0308 81.433 43.9252C81.4271 43.6954 81.4464 43.462 81.4907 43.2364C81.5249 43.0627 81.5766 42.892 81.5959 42.715C81.615 42.5392 81.5941 42.3625 81.5005 42.2092C81.3985 42.0427 81.2534 41.9077 81.1203 41.7673C80.988 41.6281 80.8649 41.4778 80.801 41.2936C80.787 41.2531 80.7745 41.2114 80.7683 41.1691C80.7632 41.1355 80.7697 41.0797 80.751 41.0506C80.7219 41.005 80.63 41.0371 80.5827 41.0416C80.35 41.0638 80.124 41.1457 79.9189 41.2567C79.7149 41.3668 79.5354 41.4817 79.3606 41.632C79.2309 41.7436 79.1031 41.9059 78.9422 41.9692C78.8703 41.9977 78.5147 41.8543 78.4276 41.7523C78.3402 41.6506 78.2763 41.47 78.2763 41.3773C78.2766 41.2825 78.3093 41.1952 78.367 41.1211C78.4012 41.0776 78.4434 41.0422 78.4779 41.0002C78.507 40.9648 78.5344 40.9312 78.5721 40.9045C78.6438 40.8538 78.7315 40.8361 78.8174 40.8538C78.7758 40.7407 78.755 40.6198 78.7591 40.4992C78.7636 40.3738 78.7862 40.2304 78.8311 40.1134C78.8676 40.0183 78.9289 39.9319 79.0172 39.8794C79.1096 39.8245 79.2277 39.8182 79.332 39.808C79.2598 39.6508 79.2152 39.4825 79.195 39.3109C79.156 38.9773 79.2125 38.6113 79.4459 38.3575Z" fill="#191847"/>
<path fill-rule="evenodd" clip-rule="evenodd" d="M77.736 63.4287L70.3982 82.1697L65.4767 98.0136H63.5333L71.0573 63.4287H77.736Z" fill="#997659"/>
<path fill-rule="evenodd" clip-rule="evenodd" d="M79.214 63.4287C79.2919 70.0146 80.4314 78.8811 80.6137 79.2915C80.7956 79.7022 93.1834 89.7327 93.1834 89.7327L91.845 91.1781C91.845 91.1781 77.2283 82.578 76.552 81.4311C75.8756 80.2842 73.6736 69.7293 71.9058 63.4287H79.214Z" fill="#B28B67"/>
<path fill-rule="evenodd" clip-rule="evenodd" d="M92.8698 89.771C92.9863 89.4401 93.3365 89.2355 93.6585 89.369C93.9017 89.4698 94.1559 89.5913 94.2914 89.7062C94.6012 89.9684 95.109 90.5759 95.109 90.5759C94.8072 90.9383 89.6887 97.094 89.6887 97.094C89.6887 97.094 88.6452 96.6431 89.034 96.0395C89.4229 95.4359 89.6702 95.0285 89.6702 95.0285L90.8092 91.0133C90.8553 90.8507 91.0253 90.7589 91.185 90.8099L91.6702 90.965C91.6702 90.965 92.3257 90.6569 92.5894 90.3398C92.6964 90.2111 92.793 89.9891 92.8698 89.771Z" fill="#E4E4E4"/>
<path fill-rule="evenodd" clip-rule="evenodd" d="M65.5606 97.2363C65.8867 97.1136 66.267 97.2531 66.3728 97.5876C66.4525 97.8405 66.5236 98.115 66.5236 98.2935C66.5236 98.7018 66.3889 99.4845 66.3889 99.4845C65.9197 99.4845 57.9566 99.4845 57.9566 99.4845C57.9566 99.4845 57.6281 98.388 58.3363 98.3007C59.0445 98.2131 59.5127 98.1426 59.5127 98.1426L63.2931 96.4422C63.4459 96.3732 63.6252 96.4455 63.6888 96.6018L63.883 97.0767C63.883 97.0767 64.5385 97.3854 64.9485 97.3854C65.1153 97.3854 65.3457 97.317 65.5606 97.2363Z" fill="#E4E4E4"/>
<path fill-rule="evenodd" clip-rule="evenodd" d="M72.8024 96.3819L63.5627 95.37L70.4107 63.4287H78.6863L72.8024 96.3819Z" fill="#FFCA28"/>
<path fill-rule="evenodd" clip-rule="evenodd" d="M91.2721 87.4008L85.2114 94.6398C85.2114 94.6398 75.6357 84.0864 74.0461 80.8677C72.4567 77.649 71.1882 63.4287 71.1882 63.4287H80.5055C80.5055 63.4287 81.1982 75.939 81.4393 76.5213C81.6807 77.1033 91.2721 87.4008 91.2721 87.4008Z" fill="#FFCA28"/>
<path fill-rule="evenodd" clip-rule="evenodd" d="M62.5356 53.7948L67.2162 57.4467L65.0017 59.1942L61.8176 55.158C59.9414 54.2988 59.1068 53.7564 59.3141 53.5305C59.4886 53.34 59.7154 53.3838 59.9241 53.4243C60.0867 53.4555 60.2384 53.4849 60.3463 53.3997C60.5927 53.2053 60.3159 52.3437 60.0189 51.537C59.7217 50.7306 60.1536 50.8659 60.3897 51.0126C61.1282 51.7101 61.8435 52.6374 62.5356 53.7948ZM85.1881 63.282L88.308 63.4347C88.9989 69.3036 89.4749 72.5442 89.7356 73.1565C89.9268 73.6056 91.4403 75.0189 92.499 75.8367C92.9238 76.1649 92.7211 76.5453 92.5492 76.6401C91.4653 77.2383 90.717 76.7448 89.9021 76.2075C89.6663 76.0521 89.4249 75.8928 89.1681 75.7554C88.5036 75.3996 88.1974 75.7131 87.9078 76.0092C87.6516 76.2714 87.4084 76.5198 86.9416 76.2789C86.9883 76.1865 87.043 76.0833 87.1024 75.9723C87.4851 75.2538 88.0493 74.1942 87.7892 73.4307C87.6557 73.0386 86.7885 69.6558 85.1881 63.282Z" fill="#B28B67"/>
<path fill-rule="evenodd" clip-rule="evenodd" d="M80.0292 49.4317L78.8284 48.8989C75.4353 50.8858 72.7329 57.0304 70.7021 57.4228C68.7821 57.7939 66.534 56.4019 63.8928 54.6214L62.5098 56.4007C64.4345 59.941 69.4484 63.7843 72.0673 62.9692C76.2541 61.666 79.052 53.953 80.0292 49.4317Z" fill="#072D83"/>
<path fill-rule="evenodd" clip-rule="evenodd" d="M81.5668 66.7141C81.5668 66.7141 74.0226 64.816 70.4681 63.9217C69.9609 63.7942 70.2392 63.0793 70.4045 62.7247C72.314 58.6339 76.7631 54.826 78.2769 48.6997L81.6034 48.9988C83.1895 53.9623 82.7979 59.4838 81.5668 66.7141Z" fill="#DDE3E9"/>
<path fill-rule="evenodd" clip-rule="evenodd" d="M73.2826 67.895L83.2733 70.4087C83.7097 67.9628 83.8316 65.291 83.7505 62.6357C84.9956 67.3232 86.1648 70.7666 87.2583 72.9659L89.6982 73.0916C90.5167 63.3362 87.8874 55.3226 81.81 49.0508L81.7734 49.0415L80.5423 48.7319C80.5423 48.7319 72.5673 62.4761 73.2826 67.895Z" fill="#072D83"/>
<path d="M41.2206 28.7597C46.5493 28.9209 51.582 31.5966 54.6905 35.9253C57.0876 39.267 58.1954 43.2637 57.8511 47.3635C57.409 52.6468 54.4747 57.4993 49.9852 60.3634C47.7953 61.7623 45.5641 62.5792 42.8733 62.965C42.3607 63.0406 40.5151 63.1201 39.9235 63.0967C37.0483 62.9704 34.1865 62.1388 31.8483 60.7429L31.6161 60.6028L26.7762 65.7274C24.1136 68.545 21.8844 70.8796 21.8229 70.9177C22.016 69.6427 20.8827 70.9285 20.8827 70.9285C20.5495 70.8313 19.6324 71.2816 19.6324 71.2816C19.6324 71.2816 17.9382 72.0991 16.9575 71.1538C15.9838 70.2214 16.6428 69.8941 16.3824 69.388C16.6021 68.7433 15.9345 65.8594 16.394 65.8582C16.425 65.7948 18.6141 63.445 21.3213 60.5767C26.0428 55.5709 26.1927 55.4053 26.1476 55.3378C25.2399 53.9904 24.4054 52.1454 23.9459 50.4651C23.3816 48.3981 23.2098 46.1187 23.4571 43.9401C23.9207 39.8496 25.9735 35.9205 29.0995 33.1437C32.4405 30.1761 36.7278 28.6237 41.2206 28.7597ZM39.4573 34.5186C35.8425 34.905 32.7164 36.8523 30.8075 39.9144C29.8341 41.4739 29.2864 43.1377 29.1109 45.0844C29.0695 45.5446 29.1178 47.0578 29.1921 47.5243C29.4919 49.4719 30.1796 51.1609 31.2974 52.6852C32.7708 54.6898 34.8679 56.1823 37.2172 56.893C38.4471 57.2629 39.4448 57.4042 40.7645 57.3841C41.6585 57.3715 42.2144 57.3141 42.9752 57.1581C48.1063 56.0964 51.8939 51.7078 52.17 46.5055C52.2007 45.9175 52.129 44.5987 52.0398 44.077C51.8169 42.7792 51.4524 41.7058 50.8384 40.5586C50.196 39.3532 49.4626 38.4066 48.4461 37.4757C46.0457 35.2716 42.7071 34.1736 39.4573 34.5186Z" fill="#FFCA28"/>
<g filter="url(#filter1_d_67_1672)">
<path d="M16.0946 65.4589L50.135 64.8589L50.4326 74.4589L16.392 74.7589L16.0946 65.4589Z" fill="#B0BEC5"/>
</g>
<path d="M50.1353 65.7588H16.838V80.7588H50.1353V65.7588Z" fill="#B0BEC5"/>
</g>
<defs>
<filter id="filter0_d_67_1672" x="-30.8267" y="3.62109" width="107.451" height="146.369" filterUnits="userSpaceOnUse" color-interpolation-filters="sRGB">
<feFlood flood-opacity="0" result="BackgroundImageFix"/>
<feColorMatrix in="SourceAlpha" type="matrix" values="0 0 0 0 0 0 0 0 0 0 0 0 0 0 0 0 0 0 127 0" result="hardAlpha"/>
<feOffset dx="-10" dy="22"/>
<feGaussianBlur stdDeviation="17"/>
<feColorMatrix type="matrix" values="0 0 0 0 0 0 0 0 0 0 0 0 0 0 0 0 0 0 0.1 0"/>
<feBlend mode="normal" in2="BackgroundImageFix" result="effect1_dropShadow_67_1672"/>
<feBlend mode="normal" in="SourceGraphic" in2="effect1_dropShadow_67_1672" result="shape"/>
</filter>
<filter id="filter1_d_67_1672" x="15.0946" y="63.8589" width="36.338" height="11.8999" filterUnits="userSpaceOnUse" color-interpolation-filters="sRGB">
<feFlood flood-opacity="0" result="BackgroundImageFix"/>
<feColorMatrix in="SourceAlpha" type="matrix" values="0 0 0 0 0 0 0 0 0 0 0 0 0 0 0 0 0 0 127 0" result="hardAlpha"/>
<feOffset/>
<feGaussianBlur stdDeviation="0.5"/>
<feColorMatrix type="matrix" values="0 0 0 0 0 0 0 0 0 0 0 0 0 0 0 0 0 0 0.25 0"/>
<feBlend mode="normal" in2="BackgroundImageFix" result="effect1_dropShadow_67_1672"/>
<feBlend mode="normal" in="SourceGraphic" in2="effect1_dropShadow_67_1672" result="shape"/>
</filter>
<clipPath id="clip0_67_1672">
<rect width="99" height="114" fill="white"/>
</clipPath>
</defs>
</svg>
